<?xml version="1.0" encoding="UTF-8" standalone="no"?>
<!DOCTYPE svg PUBLIC "-//W3C//DTD SVG 1.1//EN" "http://www.w3.org/Graphics/SVG/1.1/DTD/svg11.dtd">
<svg width="100%" height="100%" viewBox="0 0 1440 1440" version="1.1" xmlns="http://www.w3.org/2000/svg" xmlns:xlink="http://www.w3.org/1999/xlink" xml:space="preserve" xmlns:serif="http://www.serif.com/" style="fill-rule:evenodd;clip-rule:evenodd;stroke-linejoin:round;stroke-miterlimit:2;">
    <path d="M413.739,716.551L-51.194,1521.84L94.021,1605.68L603.378,723.449L609.351,720L94.021,-172.577L-51.194,-88.737L413.739,716.551Z" style="fill:white;"/>
    <g transform="matrix(1,0,0,1,412.632,3.44857)">
        <path d="M413.739,716.551L-51.194,1521.84L94.021,1605.68L603.378,723.449L609.351,720L94.021,-172.577L-51.194,-88.737L413.739,716.551Z" style="fill:white;"/>
    </g>
    <g transform="matrix(1,0,0,1,830.649,3.44857)">
        <path d="M413.739,716.551L-51.194,1521.84L94.021,1605.68L603.378,723.449L609.351,720L94.021,-172.577L-51.194,-88.737L413.739,716.551Z" style="fill:white;"/>
    </g>
</svg>
